<?xml version="1.0" standalone="no"?>
<!DOCTYPE svg PUBLIC "-//W3C//DTD SVG 20010904//EN"
 "http://www.w3.org/TR/2001/REC-SVG-20010904/DTD/svg10.dtd">
<svg version="1.0" xmlns="http://www.w3.org/2000/svg"
 width="260.000000pt" height="260.000000pt" viewBox="0 0 260.000000 260.000000"
 preserveAspectRatio="xMidYMid meet">
<metadata>
Created by potrace 1.14, written by Peter Selinger 2001-2017
</metadata>
<g transform="translate(0.000000,260.000000) scale(0.100000,-0.100000)"
fill="#000000" stroke="none">
<path d="M1203 2412 c-6 -4 -13 -34 -15 -67 l-3 -60 -62 -13 c-64 -14 -85 -34
-61 -59 10 -10 22 -10 48 -3 19 6 45 10 57 10 22 0 23 -4 23 -66 0 -59 3 -68
29 -94 51 -52 111 -52 162 0 26 26 29 35 29 96 l0 67 49 -7 c88 -12 91 40 4
59 l-48 10 -3 60 c-2 33 -9 63 -15 67 -7 4 -50 8 -97 8 -47 0 -90 -4 -97 -8z"/>
<path d="M1637 2203 c-4 -3 -7 -13 -7 -22 1 -20 126 -92 146 -84 30 11 10 46
-46 80 -54 32 -80 40 -93 26z"/>
<path d="M848 2164 c-39 -24 -58 -42 -58 -55 0 -34 26 -32 94 8 50 29 65 43
63 58 -3 32 -37 28 -99 -11z"/>
<path d="M1870 2018 c1 -13 23 -47 51 -78 41 -44 53 -53 66 -44 28 18 25 29
-23 87 -33 40 -53 57 -70 57 -18 0 -24 -5 -24 -22z"/>
<path d="M669 2018 c-24 -20 -89 -104 -89 -115 0 -6 7 -17 16 -24 15 -12 22
-8 56 31 64 73 72 88 58 105 -15 18 -22 19 -41 3z"/>
<path d="M1127 1858 c-8 -13 -18 -33 -22 -46 -8 -29 11 -88 35 -105 16 -11 17
-19 10 -51 -5 -21 -4 -51 1 -69 8 -28 5 -35 -28 -69 -33 -34 -42 -38 -88 -38
l-52 0 -18 61 c-20 64 -37 81 -61 57 -12 -12 -11 -24 12 -91 14 -42 31 -77 37
-78 7 -1 29 0 49 1 21 1 41 -1 46 -4 5 -3 1 -29 -9 -58 l-18 -53 -103 -5 c-95
-5 -103 -7 -103 -25 0 -18 8 -20 98 -23 66 -2 99 -7 102 -15 2 -7 6 -31 9 -54
l6 -43 -32 0 c-48 0 -55 -8 -83 -90 -21 -62 -23 -76 -12 -87 22 -23 42 -6 62
55 19 53 22 57 54 60 28 3 38 -2 63 -33 17 -19 53 -48 82 -62 44 -23 63 -27
136 -27 73 0 92 4 136 27 29 14 65 43 82 62 25 31 35 36 63 33 32 -3 35 -7 54
-60 20 -61 40 -78 62 -55 11 11 9 25 -12 87 -28 82 -35 90 -83 90 l-32 0 6 43
c3 23 7 47 9 54 3 8 36 13 102 15 90 3 98 5 98 23 0 18 -8 20 -103 25 l-103 5
-18 53 c-10 29 -14 55 -9 58 5 3 25 5 46 4 20 -1 42 -2 49 -1 6 1 23 36 37 78
23 67 24 79 12 91 -24 24 -41 7 -61 -57 l-18 -61 -52 0 c-46 0 -55 4 -88 38
-33 34 -36 41 -28 69 5 18 6 48 1 69 -7 32 -6 40 10 51 11 8 25 31 31 52 10
33 9 45 -7 78 -13 25 -26 38 -39 38 -21 0 -24 -21 -10 -75 4 -15 1 -33 -8 -44
-14 -19 -15 -19 -59 2 -24 12 -55 22 -68 22 -13 0 -44 -10 -68 -22 -44 -21
-45 -21 -59 -2 -9 11 -12 29 -8 44 4 14 7 36 8 50 3 33 -27 38 -46 8z m238
-173 c15 -14 25 -36 25 -52 l0 -28 -90 0 -90 0 0 28 c0 43 40 77 90 77 30 0
47 -6 65 -25z m-93 -222 c3 -76 4 -78 28 -78 24 0 25 2 28 78 3 86 8 91 63 54
44 -29 95 -105 114 -170 43 -145 -7 -270 -124 -312 -24 -8 -45 -15 -47 -15 -2
0 -4 27 -4 59 0 61 -12 77 -45 65 -11 -5 -15 -22 -15 -65 0 -32 -2 -59 -4 -59
-2 0 -23 7 -47 15 -117 42 -167 167 -124 312 19 65 70 141 114 170 55 37 60
32 63 -54z"/>
<path d="M1282 1308 c-32 -32 -1 -116 33 -88 26 22 14 100 -15 100 -3 0 -11
-5 -18 -12z"/>
<path d="M2041 1796 c-11 -13 -10 -17 40 -143 10 -26 31 -30 48 -9 19 23 -41
166 -69 166 -4 0 -13 -6 -19 -14z"/>
<path d="M501 1759 c-28 -47 -47 -127 -32 -142 20 -20 41 4 66 78 14 39 25 71
25 72 0 1 -9 7 -20 13 -17 9 -23 6 -39 -21z"/>
<path d="M306 1514 c-8 -20 -8 -168 0 -188 5 -14 29 -16 164 -16 143 0 160 2
183 20 56 44 56 136 0 180 -23 18 -40 20 -183 20 -135 0 -159 -2 -164 -16z"/>
<path d="M1947 1510 c-36 -29 -52 -81 -37 -125 22 -68 43 -75 220 -75 135 0
159 2 164 16 8 20 8 168 0 188 -5 14 -29 16 -164 16 -143 0 -160 -2 -183 -20z"/>
<path d="M2085 1208 c-4 -13 -16 -47 -27 -77 -21 -53 -21 -54 -2 -68 17 -12
21 -12 36 7 23 28 53 124 45 144 -9 24 -45 20 -52 -6z"/>
<path d="M466 1195 c-7 -19 30 -124 54 -148 15 -17 19 -17 33 -3 13 14 12 23
-12 88 -20 56 -32 74 -48 76 -12 2 -23 -4 -27 -13z"/>
<path d="M1931 910 c-56 -67 -58 -72 -37 -89 21 -17 41 -4 87 56 33 42 41 58
33 71 -19 29 -31 23 -83 -38z"/>
<path d="M600 935 c-15 -18 -2 -42 59 -105 40 -42 71 -46 71 -8 0 21 -88 128
-106 128 -6 0 -17 -7 -24 -15z"/>
<path d="M1243 800 c-43 -26 -53 -48 -53 -120 l0 -61 -52 3 c-51 3 -53 2 -53
-22 0 -22 6 -26 50 -35 l50 -11 5 -64 5 -65 105 0 105 0 5 64 5 65 63 14 c66
14 85 33 61 58 -11 11 -22 12 -49 4 -19 -6 -45 -10 -57 -10 -21 0 -23 4 -23
63 0 70 -14 98 -60 122 -39 20 -69 19 -107 -5z"/>
<path d="M1712 722 c-47 -28 -62 -42 -60 -57 5 -32 39 -28 101 11 45 28 57 41
55 58 -5 32 -27 29 -96 -12z"/>
<path d="M822 741 c-8 -5 -12 -17 -10 -27 4 -22 103 -84 134 -84 23 0 37 20
26 36 -6 8 -129 84 -135 84 -1 0 -8 -4 -15 -9z"/>
<path d="M700 242 l0 -69 45 -1 c34 0 48 4 55 18 14 27 12 45 -8 70 -16 19
-22 21 -40 11 -20 -11 -22 -9 -22 14 0 16 -6 25 -15 25 -12 0 -15 -14 -15 -68z
m70 -16 c0 -31 -14 -40 -30 -21 -15 18 -6 45 15 45 9 0 15 -9 15 -24z"/>
<path d="M1316 288 c-51 -73 34 -158 96 -96 22 22 22 23 3 27 -10 2 -21 -2
-23 -8 -2 -6 -14 -11 -27 -11 -26 0 -40 28 -30 60 7 22 51 28 57 9 2 -6 12
-10 21 -8 16 4 16 6 2 27 -22 30 -78 31 -99 0z"/>
<path d="M1630 285 c0 -22 -2 -24 -19 -13 -27 17 -51 -5 -51 -47 0 -41 15 -53
63 -53 l37 0 0 69 c0 55 -3 69 -15 69 -9 0 -15 -9 -15 -25z m-2 -63 c3 -17 -2
-22 -17 -22 -14 0 -21 6 -21 18 0 38 33 41 38 4z"/>
<path d="M822 228 l3 -53 48 -1 47 -2 0 54 c0 41 -4 54 -15 54 -11 0 -15 -11
-15 -40 0 -33 -3 -40 -20 -40 -17 0 -20 7 -20 40 0 29 -4 40 -16 40 -12 0 -14
-10 -12 -52z"/>
<path d="M952 268 c-7 -7 -12 -27 -12 -45 0 -37 25 -57 53 -42 13 8 17 6 17
-6 0 -11 -10 -15 -37 -15 -26 0 -34 -3 -26 -11 6 -6 28 -9 49 -7 l39 3 3 68
c2 55 0 67 -13 67 -8 0 -15 -5 -15 -12 0 -9 -3 -9 -12 0 -7 7 -17 12 -23 12
-6 0 -16 -5 -23 -12z m56 -46 c3 -17 -2 -22 -17 -22 -14 0 -21 6 -21 18 0 38
33 41 38 4z"/>
<path d="M1072 268 c-7 -7 -12 -27 -12 -45 0 -37 25 -57 53 -42 13 8 17 6 17
-6 0 -11 -10 -15 -37 -15 -26 0 -34 -3 -26 -11 6 -6 28 -9 49 -7 l39 3 3 68
c2 55 0 67 -13 67 -8 0 -15 -5 -15 -12 0 -9 -3 -9 -12 0 -7 7 -17 12 -23 12
-6 0 -16 -5 -23 -12z m56 -46 c3 -17 -2 -22 -17 -22 -14 0 -21 6 -21 18 0 38
33 41 38 4z"/>
<path d="M1200 225 c16 -48 17 -57 5 -62 -23 -8 -18 -23 9 -23 30 0 40 13 60
79 19 66 19 61 1 61 -8 0 -19 -17 -26 -42 l-12 -43 -11 40 c-7 23 -19 41 -28
43 -16 3 -16 -1 2 -53z"/>
<path d="M1466 264 c-19 -18 -21 -65 -4 -82 15 -15 61 -15 76 0 30 30 3 98
-38 98 -10 0 -26 -7 -34 -16z m49 -44 c0 -36 -29 -33 -33 3 -3 23 0 28 15 25
12 -2 18 -12 18 -28z"/>
<path d="M1708 269 c-21 -12 -24 -69 -6 -87 17 -17 63 -15 79 4 11 14 9 15
-21 12 -20 -2 -35 2 -37 10 -3 8 7 12 31 12 42 0 48 20 14 44 -26 18 -36 19
-60 5z m52 -29 c0 -5 -9 -10 -20 -10 -11 0 -20 5 -20 10 0 6 9 10 20 10 11 0
20 -4 20 -10z"/>
<path d="M1818 269 c-27 -15 -21 -39 12 -52 17 -6 30 -15 30 -20 0 -5 -13 -6
-30 -2 -19 4 -30 3 -30 -4 0 -14 43 -24 69 -16 23 7 29 43 9 49 -41 13 -49 17
-43 26 4 6 13 5 25 -2 26 -16 40 0 16 18 -23 16 -35 17 -58 3z"/>
</g>
</svg>
